<svg width="14" height="14" viewBox="0 0 14 14" fill="none" xmlns="http://www.w3.org/2000/svg">
<path d="M10.6666 8.33346C10.4714 9.01241 10.0846 9.62068 9.55253 10.0854C9.02044 10.5501 8.36564 10.8515 7.6666 10.9535C7.11995 11.0328 6.56292 11.0008 6.02893 10.8595C5.49494 10.7182 4.99502 10.4704 4.55918 10.131C4.12333 9.7917 3.76054 9.36779 3.4926 8.88476C3.22466 8.40173 3.05708 7.86954 2.99993 7.32013C2.95566 6.76857 3.02631 6.21382 3.20741 5.69096C3.38851 5.16809 3.67613 4.68849 4.05207 4.28248C4.42801 3.87646 4.8841 3.55286 5.39151 3.33213C5.89892 3.11141 6.4466 2.99836 6.99993 3.00013C7.51843 3.00086 8.03204 3.10041 8.51327 3.29346C8.58904 3.32748 8.67479 3.33198 8.75371 3.30609C8.83263 3.28019 8.89904 3.22576 8.93993 3.15346L9.89993 1.3868C9.9206 1.3461 9.93302 1.30173 9.9365 1.25623C9.93997 1.21072 9.93443 1.16498 9.92018 1.12162C9.90594 1.07826 9.88327 1.03814 9.85348 1.00357C9.82369 0.96899 9.78737 0.940635 9.7466 0.920129C8.71575 0.453404 7.58305 0.256757 6.4552 0.348708C5.32736 0.44066 4.24148 0.818183 3.29983 1.44572C2.35819 2.07326 1.59178 2.93016 1.07279 3.93572C0.553793 4.94127 0.299296 6.06238 0.333266 7.19346C0.398964 8.87339 1.08952 10.4683 2.26965 11.6657C3.44979 12.8631 5.03447 13.5767 6.71327 13.6668C8.47188 13.7448 10.19 13.124 11.4926 11.94C12.7953 10.756 13.5768 9.10485 13.6666 7.3468V6.01346C13.6649 5.92559 13.6292 5.84179 13.5671 5.77965C13.5049 5.7175 13.4211 5.68184 13.3333 5.68013H7.33327C7.24486 5.68013 7.16008 5.71525 7.09756 5.77776C7.03505 5.84027 6.99993 5.92506 6.99993 6.01346V8.01346C6.99993 8.10187 7.03505 8.18665 7.09756 8.24916C7.16008 8.31168 7.24486 8.3468 7.33327 8.3468H10.6666" fill="#AAAAAA"/>
</svg>
