<svg width="13" height="12" viewBox="0 0 13 12" fill="none" xmlns="http://www.w3.org/2000/svg">
<path d="M3.38676 11.3335C4.37255 11.3665 5.35496 11.2015 6.27592 10.8484C7.19687 10.4952 8.0377 9.96105 8.74869 9.2774C9.45968 8.59375 10.0264 7.77452 10.4154 6.86811C10.8044 5.96171 11.0077 4.98652 11.0134 4.00019C11.4652 3.44113 11.8007 2.79741 12.0001 2.10686C12.015 2.0523 12.0138 1.9946 11.9966 1.94071C11.9795 1.88682 11.9471 1.83903 11.9034 1.8031C11.8598 1.76718 11.8066 1.74464 11.7505 1.73821C11.6943 1.73178 11.6374 1.74173 11.5868 1.76686C11.3504 1.88063 11.0843 1.91738 10.826 1.87193C10.5677 1.82648 10.3301 1.70113 10.1468 1.51353C9.91272 1.25724 9.62963 1.05055 9.31425 0.905677C8.99887 0.760808 8.65762 0.680717 8.31072 0.670148C7.96382 0.659579 7.61833 0.718749 7.29472 0.84415C6.97111 0.969551 6.67596 1.15863 6.42676 1.40019C6.08555 1.73063 5.83564 2.14372 5.7013 2.59931C5.56696 3.0549 5.55276 3.53749 5.66009 4.00019C3.42676 4.13353 1.89342 3.07353 0.666755 1.62019C0.629904 1.57846 0.581698 1.54836 0.528024 1.53357C0.47435 1.51878 0.417531 1.51994 0.364505 1.53691C0.31148 1.55388 0.264543 1.58592 0.229426 1.62912C0.194309 1.67233 0.172533 1.72482 0.166755 1.78019C-0.0669317 3.07647 0.101641 4.41322 0.649834 5.61091C1.19803 6.80859 2.09959 7.80984 3.23342 8.48019C2.47318 9.35208 1.40556 9.89663 0.253422 10.0002C0.191697 10.0104 0.134717 10.0397 0.0904562 10.0839C0.0461959 10.1282 0.0168707 10.1851 0.00658454 10.2468C-0.00370161 10.3085 0.00556623 10.3719 0.033091 10.4281C0.0606157 10.4843 0.10502 10.5305 0.160089 10.5602C1.16244 11.0611 2.26624 11.3257 3.38676 11.3335Z" fill="#AAAAAA"/>
</svg>
